<?xml version="1.0" encoding="UTF-8"?><svg xmlns="http://www.w3.org/2000/svg" viewBox="0 0 73.08 73.08"><defs><style>.d{fill:#231f20;}</style></defs><g id="a"/><g id="b"><g id="c"><g><path class="d" d="M36.54,73.08C16.39,73.08,0,56.69,0,36.54S16.39,0,36.54,0s36.54,16.39,36.54,36.54-16.39,36.54-36.54,36.54ZM36.54,1.24C17.08,1.24,1.24,17.08,1.24,36.54s15.83,35.3,35.3,35.3,35.3-15.83,35.3-35.3S56,1.24,36.54,1.24Z"/><g><path class="d" d="M41.75,51.43h-10.43c-.18,0-.35-.08-.47-.21-.12-.14-.17-.32-.15-.49l2.51-17.69c-2.15-1.2-3.51-3.49-3.51-5.96,0-3.76,3.06-6.83,6.83-6.83s6.83,3.06,6.83,6.83c0,2.47-1.36,4.76-3.51,5.96l2.51,17.69c.03,.18-.03,.36-.15,.49-.12,.14-.29,.21-.47,.21Zm-9.71-1.24h8.99l-2.47-17.42c-.04-.27,.1-.53,.35-.65,1.95-.92,3.21-2.9,3.21-5.05,0-3.08-2.51-5.58-5.58-5.58s-5.58,2.51-5.58,5.58c0,2.15,1.26,4.13,3.21,5.05,.25,.12,.39,.38,.35,.65l-2.47,17.42Z"/><path class="d" d="M13.56,40.18c-1.16,0-2.25-.45-3.07-1.27-1.69-1.69-1.69-4.45,0-6.14,.82-.82,1.91-1.27,3.07-1.27s2.25,.45,3.07,1.27c.82,.82,1.27,1.91,1.27,3.07s-.45,2.25-1.27,3.07h0c-.82,.82-1.91,1.27-3.07,1.27Zm0-7.45c-.83,0-1.61,.32-2.19,.91-1.21,1.21-1.21,3.18,0,4.39,1.17,1.17,3.22,1.17,4.39,0h0c.59-.59,.91-1.36,.91-2.19s-.32-1.61-.91-2.19c-.58-.59-1.36-.91-2.19-.91Z"/><path class="d" d="M33.04,36.46h-14.82c-.34,0-.62-.28-.62-.62s.28-.62,.62-.62h14.82c.34,0,.62,.28,.62,.62s-.28,.62-.62,.62Z"/><path class="d" d="M64.66,36.46h-24.55c-.34,0-.62-.28-.62-.62s.28-.62,.62-.62h24.55c.34,0,.62,.28,.62,.62s-.28,.62-.62,.62Z"/><path class="d" d="M54.1,43.07c-.34,0-.62-.28-.62-.62v-5.9c0-.34,.28-.62,.62-.62s.62,.28,.62,.62v5.9c0,.34-.28,.62-.62,.62Z"/><path class="d" d="M60.12,43.07c-.34,0-.62-.28-.62-.62v-5.9c0-.34,.28-.62,.62-.62s.62,.28,.62,.62v5.9c0,.34-.28,.62-.62,.62Z"/></g></g></g></g></svg>